<svg id="visual" viewBox="0 0 900 600" width="900" height="600" xmlns="http://www.w3.org/2000/svg" xmlns:xlink="http://www.w3.org/1999/xlink" version="1.1"><rect x="0" y="0" width="900" height="600" fill="#7cc5be"></rect><path d="M0 363L129 361L257 426L386 429L514 424L643 376L771 417L900 412L900 601L771 601L643 601L514 601L386 601L257 601L129 601L0 601Z" fill="#539892"></path><path d="M0 400L129 414L257 479L386 433L514 398L643 446L771 454L900 478L900 601L771 601L643 601L514 601L386 601L257 601L129 601L0 601Z" fill="#47847f"></path><path d="M0 459L129 472L257 470L386 460L514 440L643 470L771 477L900 488L900 601L771 601L643 601L514 601L386 601L257 601L129 601L0 601Z" fill="#3b716c"></path><path d="M0 517L129 519L257 531L386 489L514 507L643 540L771 503L900 491L900 601L771 601L643 601L514 601L386 601L257 601L129 601L0 601Z" fill="#2f5f5a"></path><path d="M0 573L129 559L257 555L386 538L514 569L643 558L771 541L900 542L900 601L771 601L643 601L514 601L386 601L257 601L129 601L0 601Z" fill="#244d49"></path></svg>